<svg width="56" height="56" viewBox="0 0 56 56" fill="none" xmlns="http://www.w3.org/2000/svg">
<path d="M35 9.33335V4.66669M35 9.33335V14M35 9.33335H24.5M7 23.3334V14C7 12.7623 7.49167 11.5754 8.36683 10.7002C9.242 9.82502 10.429 9.33335 11.6667 9.33335H16.3333M16.3333 4.66669V14M49 23.3334V14C49 12.7623 48.5083 11.5754 47.6332 10.7002C46.758 9.82502 45.571 9.33335 44.3333 9.33335H43.1667M7 23.3334V44.3334C7 45.571 7.49167 46.758 8.36683 47.6332C9.242 48.5084 10.429 49 11.6667 49H44.3333C45.571 49 46.758 48.5084 47.6332 47.6332C48.5083 46.758 49 45.571 49 44.3334V23.3334H7Z" stroke="#4E5B3E" stroke-width="3.5" stroke-linecap="round" stroke-linejoin="round"/>
</svg>
