<svg width="32" height="32" viewBox="0 0 32 32" fill="none" xmlns="http://www.w3.org/2000/svg">
<path d="M20.6667 20.6666L25.3333 25.3333M6.66666 14.6666C6.66666 15.7172 6.87358 16.7575 7.27562 17.7281C7.67766 18.6987 8.26693 19.5806 9.0098 20.3235C9.75267 21.0663 10.6346 21.6556 11.6052 22.0577C12.5758 22.4597 13.6161 22.6666 14.6667 22.6666C15.7172 22.6666 16.7575 22.4597 17.7281 22.0577C18.6987 21.6556 19.5806 21.0663 20.3235 20.3235C21.0664 19.5806 21.6557 18.6987 22.0577 17.7281C22.4597 16.7575 22.6667 15.7172 22.6667 14.6666C22.6667 12.5449 21.8238 10.5101 20.3235 9.00977C18.8232 7.50948 16.7884 6.66663 14.6667 6.66663C12.5449 6.66663 10.5101 7.50948 9.0098 9.00977C7.50951 10.5101 6.66666 12.5449 6.66666 14.6666V14.6666Z" stroke="#4E5B3E" stroke-width="1.5" stroke-linecap="round" stroke-linejoin="round"/>
</svg>
