<svg width="56" height="56" viewBox="0 0 56 56" fill="none" xmlns="http://www.w3.org/2000/svg">
<path d="M47.7984 7H38.4837L39.6504 18.6667C39.6504 18.6667 41.9837 21 45.4837 21C47.321 21.0024 49.0959 20.3336 50.4747 19.1193C50.6204 18.9831 50.7291 18.812 50.7903 18.6222C50.8515 18.4323 50.8634 18.23 50.8247 18.0343L49.1774 8.16667C49.1223 7.84069 48.9536 7.54472 48.7012 7.33119C48.4488 7.11766 48.129 7.00034 47.7984 7V7Z" stroke="#4E5B3E" stroke-width="3.5"/>
<path d="M38.4837 7L39.6504 18.6667C39.6504 18.6667 37.317 21 33.817 21C30.317 21 27.9837 18.6667 27.9837 18.6667V7H38.4837Z" stroke="#4E5B3E" stroke-width="3.5"/>
<path d="M27.9837 7V18.6667C27.9837 18.6667 25.6504 21 22.1504 21C18.6504 21 16.317 18.6667 16.317 18.6667L17.4837 7H27.9837Z" stroke="#4E5B3E" stroke-width="3.5"/>
<path d="M17.4837 7H8.17135C7.84 6.99988 7.51935 7.11728 7.26643 7.33133C7.0135 7.54538 6.84469 7.8422 6.79002 8.169L5.14502 18.0367C5.10657 18.2324 5.11852 18.4346 5.17975 18.6244C5.24097 18.8142 5.34946 18.9853 5.49502 19.1217C6.26035 19.7983 7.97068 21.0023 10.4837 21.0023C13.9837 21.0023 16.317 18.669 16.317 18.669L17.4837 7.00233V7Z" stroke="#4E5B3E" stroke-width="3.5"/>
<path d="M7 21V44.3333C7 45.571 7.49167 46.758 8.36683 47.6332C9.242 48.5083 10.429 49 11.6667 49H44.3333C45.571 49 46.758 48.5083 47.6332 47.6332C48.5083 46.758 49 45.571 49 44.3333V21" stroke="#4E5B3E" stroke-width="3.5"/>
<path d="M34.6104 49V35C34.6104 33.7623 34.1187 32.5753 33.2435 31.7001C32.3683 30.825 31.1814 30.3333 29.9437 30.3333H25.277C24.0393 30.3333 22.8524 30.825 21.9772 31.7001C21.102 32.5753 20.6104 33.7623 20.6104 35V49" stroke="#4E5B3E" stroke-width="3.5" stroke-miterlimit="16"/>
</svg>
