<svg width="351" height="201" viewBox="0 0 351 201" fill="none" xmlns="http://www.w3.org/2000/svg">
<g clip-path="url(#clip0_460_13459)">
<path d="M126.502 2.11492C126.292 1.94112 125.927 1.9191 125.688 2.06576L121.787 4.45548C121.547 4.60212 121.524 4.8619 121.734 5.0357C121.944 5.20951 122.308 5.23152 122.548 5.08488L126.015 2.96067L129.059 5.47825C129.269 5.65205 129.633 5.67406 129.873 5.52742C130.112 5.38077 130.136 5.121 129.926 4.94719L126.502 2.11492ZM221 84.9476L220.425 84.91L220.34 85.7469L221.32 85.2947L221 84.9476ZM347.452 116.313C347.028 117.238 346.585 118.148 346.125 119.043L347.209 119.34C347.674 118.436 348.12 117.517 348.549 116.582L347.452 116.313ZM343.101 124.32C341.98 126.084 340.785 127.781 339.522 129.411L340.534 129.82C341.812 128.172 343.02 126.456 344.153 124.673L343.101 124.32ZM335.375 134.269C333.872 135.871 332.296 137.397 330.655 138.846L331.558 139.371C333.22 137.903 334.815 136.358 336.337 134.736L335.375 134.269ZM325.372 143.091C323.493 144.465 321.549 145.752 319.547 146.954L320.3 147.589C322.329 146.37 324.3 145.065 326.205 143.673L325.372 143.091ZM313.216 150.386C311.002 151.464 308.735 152.45 306.424 153.343L306.988 154.069C309.333 153.163 311.633 152.163 313.879 151.069L313.216 150.386ZM299.222 155.789C296.746 156.519 294.234 157.15 291.697 157.684L292.042 158.474C294.618 157.933 297.168 157.292 299.68 156.551L299.222 155.789ZM283.924 159.005C281.29 159.349 278.64 159.591 275.986 159.734L276.095 160.555C278.789 160.411 281.479 160.164 284.153 159.815L283.924 159.005ZM267.963 159.857C265.282 159.797 262.608 159.634 259.953 159.37L259.816 160.185C262.512 160.454 265.227 160.619 267.949 160.68L267.963 159.857ZM252.048 158.272C249.443 157.805 246.869 157.237 244.339 156.57L243.958 157.342C246.528 158.02 249.142 158.596 251.788 159.07L252.048 158.272ZM236.924 154.281C234.523 153.426 232.175 152.474 229.892 151.427L229.282 152.117C231.601 153.181 233.986 154.148 236.426 155.016L236.924 154.281ZM223.326 148.041C221.242 146.839 219.23 145.546 217.3 144.164L216.491 144.74C218.451 146.144 220.494 147.456 222.611 148.678L223.326 148.041ZM211.896 139.863C210.225 138.384 208.638 136.825 207.143 135.186L206.18 135.626C207.697 137.289 209.308 138.871 211.004 140.372L211.896 139.863ZM203.066 130.195C201.843 128.517 200.709 126.769 199.672 124.952L198.605 125.25C199.656 127.091 200.805 128.862 202.044 130.563L203.066 130.195ZM196.951 119.517C196.171 117.718 195.479 115.86 194.88 113.944L193.755 114.108C194.36 116.046 195.06 117.925 195.85 119.746L196.951 119.517ZM193.425 108.278C193.231 107.327 193.059 106.362 192.91 105.385L191.763 105.459C191.914 106.446 192.088 107.42 192.283 108.381L193.425 108.278ZM192.505 105.031C191.142 104.714 189.808 104.374 188.5 104.011L188.101 104.778C189.429 105.146 190.784 105.491 192.167 105.813L192.505 105.031ZM180.828 101.518C178.302 100.569 175.892 99.5296 173.594 98.4086L172.956 99.0857C175.291 100.225 177.74 101.281 180.306 102.245L180.828 101.518ZM166.883 94.7216C164.737 93.4001 162.703 92.0011 160.775 90.5346L159.941 91.0919C161.896 92.5792 163.96 93.999 166.14 95.3407L166.883 94.7216ZM155.288 85.9251C153.564 84.3291 151.942 82.6752 150.414 80.9736L149.447 81.4082C150.991 83.1293 152.634 84.8034 154.379 86.4199L155.288 85.9251ZM146.126 75.7524C144.791 73.9759 143.545 72.1624 142.382 70.3216L141.332 70.6481C142.506 72.5053 143.764 74.3362 145.112 76.1306L146.126 75.7524ZM139.137 64.7313C138.131 62.8404 137.203 60.9325 136.346 59.0175L135.248 59.254C136.111 61.1825 137.046 63.1047 138.06 65.0106L139.137 64.7313ZM133.969 53.213C133.235 51.2504 132.571 49.2913 131.97 47.3466L130.844 47.5092C131.448 49.465 132.117 51.4358 132.855 53.4108L133.969 53.213ZM130.309 41.4109C129.801 39.3908 129.357 37.3995 128.969 35.4502L127.827 35.5505C128.217 37.5092 128.663 39.5104 129.174 41.541L130.309 41.4109ZM127.922 29.458C127.609 27.3794 127.356 25.3713 127.154 23.4522L126.004 23.498C126.207 25.4254 126.46 27.4424 126.775 29.5304L127.922 29.458ZM126.654 17.4184C126.519 15.2105 126.45 13.188 126.421 11.3914L125.268 11.3847C125.296 13.1894 125.366 15.2208 125.501 17.4381L126.654 17.4184ZM126.478 5.3618C126.513 4.41248 126.555 3.67466 126.587 3.17475C126.604 2.92479 126.618 2.73431 126.628 2.60662C126.633 2.54277 126.637 2.49463 126.64 2.46259C126.641 2.44657 126.642 2.43458 126.643 2.42667C126.643 2.42271 126.644 2.41977 126.644 2.41786C126.644 2.41691 126.644 2.41621 126.644 2.41577C126.644 2.41554 126.644 2.41539 126.644 2.4153C126.644 2.41525 126.644 2.41522 126.644 2.41521C126.644 2.4152 126.644 2.4152 126.644 2.4152C126.644 2.41521 126.644 2.41521 126.068 2.38045C125.493 2.34568 125.493 2.34569 125.493 2.34572C125.493 2.34573 125.493 2.34576 125.493 2.34578C125.493 2.34583 125.493 2.3459 125.493 2.34599C125.493 2.34615 125.493 2.34638 125.493 2.34667C125.493 2.34727 125.493 2.34812 125.493 2.34922C125.492 2.35142 125.492 2.35467 125.492 2.35891C125.491 2.36743 125.49 2.38003 125.488 2.39666C125.486 2.42991 125.481 2.47931 125.476 2.5444C125.466 2.67459 125.452 2.86764 125.435 3.12023C125.402 3.62542 125.36 4.36884 125.325 5.32404L126.478 5.3618ZM192.167 105.813C193.521 106.128 194.843 106.418 196.136 106.685L196.437 105.895C195.157 105.63 193.846 105.342 192.505 105.031L192.167 105.813ZM204.004 108.086C206.874 108.509 209.571 108.803 212.101 108.981L212.191 108.161C209.706 107.986 207.05 107.697 204.216 107.28L204.004 108.086ZM220.222 109.151C223.213 109.048 225.899 108.75 228.298 108.29L227.979 107.495C225.667 107.938 223.062 108.228 220.144 108.328L220.222 109.151ZM235.783 105.965C238.266 104.81 240.188 103.409 241.6 101.87L240.631 101.41C239.305 102.855 237.495 104.177 235.14 105.272L235.783 105.965ZM244.488 96.3873C244.894 94.3801 244.678 92.3552 243.935 90.4915L242.826 90.7025C243.524 92.4556 243.729 94.3632 243.346 96.2542L244.488 96.3873ZM239.867 85.2855C237.907 83.8188 235.412 82.7821 232.516 82.4355L232.347 83.2476C234.967 83.5611 237.237 84.4987 239.04 85.8478L239.867 85.2855ZM224.337 83.2172C223.144 83.5685 221.924 84.0266 220.68 84.6006L221.32 85.2947C222.511 84.745 223.671 84.3103 224.794 83.9794L224.337 83.2172ZM221.575 84.9853C221.675 83.9972 221.536 82.9735 221.203 81.9515L220.08 82.1231C220.391 83.0766 220.515 84.0163 220.425 84.91L221.575 84.9853ZM217.619 76.4843C215.938 74.8092 213.837 73.3297 211.546 72.2693L210.932 72.9576C213.084 73.9538 215.081 75.3557 216.686 76.9552L217.619 76.4843ZM203.395 70.6028C200.783 70.7883 198.31 71.7523 196.26 73.7031L197.188 74.2054C199.072 72.4124 201.273 71.5827 203.532 71.4222L203.395 70.6028ZM192.763 79.066C192.096 80.7142 191.567 82.6349 191.206 84.8561L192.351 84.9667C192.707 82.7818 193.225 80.9063 193.871 79.3088L192.763 79.066ZM190.677 90.7247C190.626 92.5493 190.661 94.5208 190.792 96.6482L191.944 96.6281C191.815 94.5165 191.78 92.5626 191.831 90.7573L190.677 90.7247ZM191.347 102.48C191.469 103.446 191.607 104.439 191.763 105.459L192.91 105.385C192.755 104.37 192.617 103.383 192.496 102.422L191.347 102.48Z" fill="#975202"/>
</g>
<defs>
<clipPath id="clip0_460_13459">
<rect width="351" height="200" fill="white" transform="translate(0 0.947632)"/>
</clipPath>
</defs>
</svg>
