<svg width="352" height="70" viewBox="0 0 352 70" fill="none" xmlns="http://www.w3.org/2000/svg">
<path d="M161.5 1.574L161.598 1.08364L161.5 1.574ZM351.445 36.012C351.571 35.7663 351.474 35.4649 351.228 35.3388L347.224 33.2846C346.979 33.1586 346.677 33.2556 346.551 33.5013C346.425 33.7469 346.522 34.0483 346.768 34.1744L350.327 36.0003L348.501 39.5592C348.375 39.8049 348.472 40.1063 348.718 40.2323C348.963 40.3584 349.265 40.2614 349.391 40.0157L351.445 36.012ZM0.632084 18.0328C1.4216 18.8908 2.22635 19.7261 3.0457 20.5391L3.75005 19.8293C2.94141 19.0269 2.14717 18.2025 1.36795 17.3557L0.632084 18.0328ZM8.15644 25.1732C9.93826 26.649 11.7751 28.0357 13.6616 29.3368L14.2294 28.5136C12.3665 27.2288 10.5531 25.8597 8.7943 24.4031L8.15644 25.1732ZM19.5109 33.0138C21.5102 34.1566 23.5544 35.2158 25.638 36.1952L26.0634 35.2902C24.0031 34.3218 21.9826 33.2748 20.0071 32.1456L19.5109 33.0138ZM31.9888 38.8925C34.133 39.7113 36.3106 40.4547 38.5163 41.1264L38.8076 40.1698C36.6232 39.5045 34.4674 38.7685 32.3456 37.9583L31.9888 38.8925ZM45.1782 42.9218C47.4107 43.4488 49.6655 43.909 51.9374 44.3059L52.1095 43.3209C49.8562 42.9271 47.6206 42.4708 45.4079 41.9486L45.1782 42.9218ZM58.7566 45.3055C61.0333 45.5774 63.3218 45.7906 65.6169 45.9488L65.6856 44.9511C63.4065 44.7941 61.1347 44.5824 58.8751 44.3126L58.7566 45.3055ZM72.5015 46.2605C74.7985 46.3117 77.0972 46.3113 79.3926 46.2627L79.3714 45.2629C77.0901 45.3112 74.8059 45.3116 72.5238 45.2608L72.5015 46.2605ZM86.2739 45.9748C88.5708 45.832 90.8593 45.6438 93.1344 45.4136L93.0337 44.4187C90.7711 44.6477 88.4955 44.8348 86.2119 44.9767L86.2739 45.9748ZM99.9773 44.5911C102.268 44.2727 104.539 43.9139 106.786 43.5183L106.612 42.5334C104.377 42.927 102.118 43.2839 99.8396 43.6006L99.9773 44.5911ZM113.549 42.2028C115.82 41.7192 118.058 41.1999 120.258 40.649L120.015 39.679C117.826 40.227 115.6 40.7436 113.341 41.2247L113.549 42.2028ZM126.903 38.8573C129.146 38.2084 131.339 37.5285 133.475 36.8222L133.161 35.8728C131.037 36.5751 128.856 37.2513 126.625 37.8966L126.903 38.8573ZM139.966 34.5311C142.179 33.6981 144.314 32.839 146.361 31.9601L145.967 31.0412C143.934 31.9139 141.813 32.7673 139.613 33.5952L139.966 34.5311ZM152.637 29.0696C154.812 27.9936 156.851 26.8992 158.74 25.7964L158.236 24.9328C156.369 26.0229 154.35 27.1066 152.194 28.1734L152.637 29.0696ZM164.538 22.0425C166.628 20.525 168.408 19.0089 169.832 17.5196L169.11 16.8284C167.736 18.2642 166.005 19.7416 163.95 21.2333L164.538 22.0425ZM173.588 11.5665C173.91 10.3533 173.911 9.1717 173.545 8.05373C173.179 6.93696 172.456 5.91786 171.384 5.00981L170.738 5.77296C171.696 6.58445 172.296 7.45521 172.595 8.36528C172.893 9.27414 172.901 10.2564 172.622 11.3105L173.588 11.5665ZM165.083 1.93388C164.024 1.61976 162.863 1.33573 161.598 1.08364L161.402 2.06437C162.642 2.3113 163.773 2.58828 164.798 2.89257L165.083 1.93388ZM161.598 1.08364C160.399 0.844907 159.203 0.675628 158.013 0.572042L157.926 1.56828C159.08 1.66872 160.24 1.83285 161.402 2.06437L161.598 1.08364ZM150.835 0.725694C148.436 1.03506 146.093 1.5957 143.836 2.37305L144.161 3.31856C146.357 2.56236 148.634 2.01781 150.963 1.71748L150.835 0.725694ZM137.301 5.34895C135.212 6.54795 133.241 7.93551 131.421 9.4759L132.067 10.2393C133.842 8.73731 135.763 7.38469 137.799 6.21625L137.301 5.34895ZM126.382 14.5905C124.844 16.4689 123.5 18.4738 122.384 20.5661L123.266 21.0366C124.35 19.0044 125.658 17.0538 127.156 15.2241L126.382 14.5905ZM119.71 27.2436C119.072 29.5849 118.725 31.9792 118.713 34.3802L119.713 34.3853C119.725 32.0773 120.058 29.7697 120.675 27.5068L119.71 27.2436ZM119.714 41.5334C120.369 43.7609 121.356 45.9491 122.707 48.059L123.549 47.5197C122.249 45.4887 121.301 43.3871 120.674 41.2513L119.714 41.5334ZM127.322 53.5921C128.964 55.1495 130.859 56.6322 133.024 58.021L133.564 57.1794C131.448 55.822 129.603 54.3776 128.01 52.8666L127.322 53.5921ZM139.334 61.4372C141.371 62.368 143.577 63.2336 145.958 64.0253L146.273 63.0763C143.924 62.2952 141.752 61.4425 139.749 60.5277L139.334 61.4372ZM152.752 65.9605C154.943 66.4905 157.255 66.9666 159.692 67.3844L159.861 66.3988C157.445 65.9846 155.155 65.5129 152.987 64.9886L152.752 65.9605ZM166.807 68.3937C169.07 68.6522 171.424 68.8657 173.873 69.0313L173.941 68.0336C171.506 67.869 169.167 67.6568 166.921 67.4002L166.807 68.3937ZM180.923 69.3661C183.256 69.4324 185.666 69.4588 188.155 69.4433L188.149 68.4434C185.671 68.4588 183.273 68.4325 180.951 68.3666L180.923 69.3661ZM195.119 69.2965C197.468 69.2134 199.882 69.0956 202.36 68.9414L202.298 67.9434C199.828 68.097 197.424 68.2144 195.084 68.2971L195.119 69.2965ZM209.3 68.4286C211.63 68.2301 214.013 68.0013 216.451 67.7413L216.345 66.7469C213.914 67.0062 211.538 67.2343 209.215 67.4322L209.3 68.4286ZM223.461 66.9254C225.75 66.6374 228.084 66.3232 230.463 65.9821L230.321 64.9922C227.947 65.3325 225.619 65.6459 223.336 65.9332L223.461 66.9254ZM237.645 64.8919C239.881 64.5343 242.154 64.154 244.465 63.7505L244.293 62.7654C241.986 63.1681 239.718 63.5476 237.487 63.9044L237.645 64.8919ZM251.514 62.4697C253.819 62.0348 256.16 61.5777 258.538 61.0979L258.34 60.1177C255.967 60.5966 253.63 61.0529 251.329 61.487L251.514 62.4697ZM265.354 59.6815C267.659 59.189 269.997 58.6758 272.367 58.1417L272.148 57.1662C269.78 57.6995 267.446 58.2118 265.145 58.7036L265.354 59.6815ZM279.35 56.5303C281.573 56.0054 283.823 55.4626 286.102 54.9017L285.863 53.9307C283.587 54.4909 281.34 55.0329 279.12 55.5571L279.35 56.5303ZM293.024 53.1642C295.351 52.5691 297.705 51.9556 300.089 51.3235L299.832 50.3569C297.452 50.9883 295.1 51.601 292.776 52.1954L293.024 53.1642ZM306.738 49.5316C308.979 48.9183 311.244 48.2891 313.534 47.6435L313.263 46.681C310.975 47.3259 308.712 47.9545 306.474 48.567L306.738 49.5316ZM320.477 45.6578C322.735 45.0031 325.016 44.333 327.32 43.6473L327.035 42.6889C324.733 43.3739 322.454 44.0433 320.199 44.6974L320.477 45.6578ZM333.969 41.645C336.206 40.9633 338.465 40.2672 340.746 39.5565L340.448 38.6018C338.17 39.3118 335.913 40.0073 333.678 40.6884L333.969 41.645ZM347.652 37.3807C348.813 37.0107 349.981 36.637 351.153 36.2597L350.847 35.3077C349.675 35.6848 348.509 36.0582 347.348 36.4278L347.652 37.3807Z" fill="#975202"/>
</svg>
