<svg width="44" height="40" viewBox="0 0 44 40" fill="none" xmlns="http://www.w3.org/2000/svg">
<path d="M0.48847 17.6262C-0.949471 13.9131 0.89495 9.73728 4.6081 8.29934L24.7779 0.48847C28.491 -0.949471 32.6668 0.89495 34.1047 4.6081L38.6611 16.3738C40.099 20.0869 38.2546 24.2627 34.5414 25.7007L14.3717 33.5115C10.6585 34.9495 6.48275 33.105 5.04481 29.3919L0.48847 17.6262Z" fill="#553004"/>
<path d="M4 18C4 13.5817 7.58172 10 12 10H36C40.4183 10 44 13.5817 44 18V32C44 36.4183 40.4183 40 36 40H12C7.58172 40 4 36.4183 4 32V18Z" fill="#975202"/>
</svg>
